<?xml version="1.0" standalone="no"?><!DOCTYPE svg PUBLIC "-//W3C//DTD SVG 1.1//EN" "http://www.w3.org/Graphics/SVG/1.1/DTD/svg11.dtd"><svg t="1625933264752" class="icon" viewBox="0 0 1024 1024" version="1.1" xmlns="http://www.w3.org/2000/svg" p-id="3215" xmlns:xlink="http://www.w3.org/1999/xlink" width="200" height="200"><defs><style type="text/css"></style></defs><path d="M895.04 165.44H129.92c-23.52 0-46.08 9.12-62.4 25.44-16.8 16.32-25.92 38.4-25.92 61.44v520.8c-0.48 23.04 8.64 45.6 25.44 61.92 16.8 16.32 39.36 25.44 62.88 24.96h765.6c48.96 0 88.32-38.88 88.32-86.88V252.32c-0.48-48-40.32-86.4-88.8-86.88m29.28 608.16c-0.96 15.36-13.44 27.84-29.28 28.8H129.92c-15.84-0.96-28.32-13.44-29.28-28.8v-260.64h823.68v260.64z m0-434.4H100.16V252.32c0.96-15.36 13.92-27.84 29.76-28.8h765.12c15.84 0.96 28.32 13.44 29.28 28.8V339.2zM159.2 628.64h59.04v116.16H159.2v-116.16z m117.6 0h59.04v116.16H276.8v-116.16z m118.08 0h59.04v116.16H394.88v-116.16z" fill="#ffffff" p-id="3216"></path></svg>