<?xml version="1.0" standalone="no"?><!DOCTYPE svg PUBLIC "-//W3C//DTD SVG 1.1//EN" "http://www.w3.org/Graphics/SVG/1.1/DTD/svg11.dtd"><svg t="1625416958214" class="icon" viewBox="0 0 1820 1024" version="1.1" xmlns="http://www.w3.org/2000/svg" p-id="3165" xmlns:xlink="http://www.w3.org/1999/xlink" width="355.46875" height="200"><defs><style type="text/css"></style></defs><path d="M1166.36802408 501.19857147l357.89098708-357.89098712c72.66076771-72.65184443 72.66076771-190.44056254 0-263.09240692-72.642921-72.65184443-190.44502422-72.65630601-263.08794048 0l-357.8954535 357.89099181-357.89099184-357.89545354c-72.65184443-72.65630601-190.44056254-72.65630601-263.09240217 0-72.65184443 72.642921-72.65630601 190.44502422 0 263.09240689l357.89099182 357.89098718-357.89991517 357.89545349c-72.66076771 72.65184443-72.66076771 190.44056254 0 263.09240682 72.64738269 72.65184443 190.44502422 72.65630601 263.09686386 0l357.8954535-357.89099175 357.8954535 357.89545342c72.65184443 72.66076771 190.43609621 72.66076771 263.08794048 0 72.65184443-72.64738269 72.65630601-190.44502422 0-263.09686849l-357.89098708-357.89099179z" fill="#1CB2EB" p-id="3166"></path></svg>