<?xml version="1.0" standalone="no"?><!DOCTYPE svg PUBLIC "-//W3C//DTD SVG 1.1//EN" "http://www.w3.org/Graphics/SVG/1.1/DTD/svg11.dtd"><svg t="1625930487521" class="icon" viewBox="0 0 1024 1024" version="1.1" xmlns="http://www.w3.org/2000/svg" p-id="3215" xmlns:xlink="http://www.w3.org/1999/xlink" width="200" height="200"><defs><style type="text/css"></style></defs><path d="M429.36638578 448.21162667V166.756352H210.44701867v281.45527467c0 34.54475378 28.02028089 62.53590755 62.53590755 62.53590755v343.99118223h93.81842489v-343.99118223a62.53590755 62.53590755 0 0 0 62.56503467-62.53590755z m62.53590755 0a125.042688 125.042688 0 0 1-62.53590755 108.35285333v298.17423645a62.53590755 62.53590755 0 0 1-62.56503467 62.53590755h-93.78929778a62.56503467 62.56503467 0 0 1-62.56503466-62.53590755V556.56448A125.01356089 125.01356089 0 0 1 147.91111111 448.21162667V166.756352C147.91111111 132.21159822 175.90226489 104.22044445 210.44701867 104.22044445h218.91936711c34.51562667 0 62.53590755 27.99115378 62.53590755 62.53590755v281.45527467z m-250.20188444-281.45527467h62.56503466v187.63684978a31.28251733 31.28251733 0 1 1-62.53590755 0V166.756352h-0.02912711z m566.43492978-62.47765333c32.85538133 1.28159289 59.01152711 28.77758578 59.01152711 62.47765333v687.98236445c0 34.54475378-27.52512 62.53590755-61.39995023 62.53590755h-61.42907733c-33.90395733 0-61.42907733-27.96202667-61.42907733-62.53590755v-249.35719823c-61.45820445-30.46695822-97.16804267-93.26500978-97.16804267-180.90848711 0-93.38151822 7.57304889-163.69436445 31.63204267-212.22013156C654.75197155 136.90106311 708.43323733 104.22044445 775.01781333 104.22044445h33.11752534v0.05825422z m-63.78837334 480.27693511v270.18308267h61.39995022V166.756352H775.01781333c-43.69066667 0-76.02176 19.71905422-102.87695644 73.69159111-18.14619022 36.58365155-25.02018845 100.72155022-25.02018844 184.025088 0 70.89538845 27.75813689 113.18795378 76.08001422 130.34382222l8.650752 3.11660089 5.91280355 2.18453333c2.62144 1.01944889 3.670016 1.33984711 4.13604978 1.45635556a15.64125867 15.64125867 0 0 0 2.41755022 0.08738134v22.89390933h0.02912711zM335.54796089 166.756352h62.53590756v187.63684978a31.28251733 31.28251733 0 0 1-62.53590756 0V166.756352z" fill="#ffffff" p-id="3216"></path></svg>