<?xml version="1.0" standalone="no"?><!DOCTYPE svg PUBLIC "-//W3C//DTD SVG 1.1//EN" "http://www.w3.org/Graphics/SVG/1.1/DTD/svg11.dtd"><svg t="1625413323941" class="icon" viewBox="0 0 1024 1024" version="1.1" xmlns="http://www.w3.org/2000/svg" p-id="3139" xmlns:xlink="http://www.w3.org/1999/xlink" width="200" height="200"><defs><style type="text/css"></style></defs><path d="M653.82662964 314.70957947H430.04027557V194.66677857c0-12.51411438-8.80622864-17.53520966-19.54364776-11.27815247l-285.81619263 165.07816315c-10.81466675 6.17980958-10.81466675 16.29924774 0 22.55630492l285.81619263 165.00091554c10.73741914 6.17980958 19.54364777 1.1587143 19.54364777-11.27815248V404.78030396h223.78635406c90.22521973 0 163.61045838 73.38523865 163.61045838 163.68770599s-73.38523865 163.76495362-163.61045838 163.76495361H287.98190308c-24.95098115 0-45.03536225 20.0843811-45.03536225 45.03536225s20.0843811 45.11260987 45.03536225 45.11260986h365.84472656c139.89543915 0 253.75843048-113.86299133 253.75843049-253.8356781 0-140.04993439-113.86299133-253.8356781-253.75843049-253.8356781z" fill="#1CB2EB" p-id="3140"></path></svg>