<?xml version="1.0" standalone="no"?><!DOCTYPE svg PUBLIC "-//W3C//DTD SVG 1.1//EN" "http://www.w3.org/Graphics/SVG/1.1/DTD/svg11.dtd"><svg t="1625930541195" class="icon" viewBox="0 0 1024 1024" version="1.1" xmlns="http://www.w3.org/2000/svg" p-id="3215" xmlns:xlink="http://www.w3.org/1999/xlink" width="200" height="200"><defs><style type="text/css"></style></defs><path d="M904.23150687 398.11410022L598.49927375 80.85720021c-22.75289344-23.61534844-53.16043687-36.61069781-85.66991625-36.61069781-32.4893325 0-62.91702188 12.99534937-85.67087531 36.61069781l-32.00581969 33.20308875c-4.8782925-4.71040594-11.48149594-7.65465-18.79941375-7.65465L211.11200187 106.40563803c-14.97256875 0-27.10546219 12.13385344-27.10546218 27.08531625l0 199.68573281-62.55918469 64.93645312c-34.57112062 35.85377156-29.96528344 64.17856688-24.14107219 77.86848563 5.80310531 13.68895875 23.00520281 36.65290969 72.8213475 36.65290969l16.88551125 0 0 352.87946812c0 14.95050375 12.13385344 27.08339719 27.08435719 27.08339719l597.46084125 0c14.97160969 0 27.08435719-12.13289344 27.08435719-27.08339719L838.64269625 512.63549459l16.88647125 0c49.81710375 0 67.01728219-22.96395 72.8434125-36.65290969C934.19775031 462.29266709 938.78248156 433.94580584 904.23150687 398.11410022zM238.19731812 160.57627053l111.0725325 0 1e-8 1.11476437-111.0725325 115.25625656L238.19731812 160.57627053zM607.49989063 838.42868646l-80.9182575 0L526.58163406 646.79765272l80.9182575-1e-8L607.49989063 838.42868646zM784.47494187 838.42868646L661.668605 838.42868646 661.668605 619.7113774c0-14.95146281-12.1127475-27.08339719-27.08339719-27.08339719L499.47521187 592.62797928c-14.95050375 0-27.10546219 12.13193438-27.10546218 27.08339718l0 218.71731001L241.18281406 838.42868646 241.18281406 512.63549459l543.29212781 0L784.47494187 838.42868646zM855.53012656 458.46486209L170.12762938 458.46486209c-12.89077969 0-19.82975531-2.37630844-22.47947907-3.89016281 0.75692719-2.92313812 3.84891-9.58869844 12.80635688-18.88383656l305.73319312-317.23579407c24.8557875-25.84391813 68.40642-25.84391813 93.28139532 0l305.75525812 317.23579406c8.95744688 9.29513812 12.02736562 15.96069844 12.78429188 18.88383657C875.38194688 456.08855365 868.44297125 458.46486209 855.53012656 458.46486209z" fill="#ffffff" p-id="3216"></path></svg>