<?xml version="1.0" standalone="no"?><!DOCTYPE svg PUBLIC "-//W3C//DTD SVG 1.1//EN" "http://www.w3.org/Graphics/SVG/1.1/DTD/svg11.dtd"><svg t="1625930572045" class="icon" viewBox="0 0 1024 1024" version="1.1" xmlns="http://www.w3.org/2000/svg" p-id="3215" xmlns:xlink="http://www.w3.org/1999/xlink" width="200" height="200"><defs><style type="text/css"></style></defs><path d="M776.09375 889.72916667H252.6875c-69.375 0-125.90625-56.4375-125.90625-125.90625V343.54166667c0-69.375 56.4375-125.90625 125.90625-125.90625h523.5c69.375 0 125.90625 56.4375 125.90625 125.90625v420.28125C902 833.29166667 845.5625 889.72916667 776.09375 889.72916667zM252.6875 301.63541667c-23.15625 0-42 18.84375-42 42v420.28125c0 23.15625 18.84375 42 42 42h523.5c23.15625 0 42-18.84375 42-42V343.54166667c0-23.15625-18.84375-42-42-42H252.6875z" fill="#ffffff" p-id="3216"></path><path d="M703.71875 301.63541667H325.15625c-23.15625 0-42-18.75-42-42v-83.53125c0-69.28125 56.34375-125.625 125.625-125.625h211.3125c69.28125 0 125.625 56.34375 125.625 125.625v83.53125c-0.09375 23.15625-18.84375 42-42 42z m-336.65625-84h294.65625v-41.53125c0-22.96875-18.65625-41.71875-41.625-41.71875H408.78125c-22.96875 0-41.625 18.65625-41.625 41.71875v41.53125zM626.65625 595.63541667H398.46875c-23.15625 0-42-18.75-42-42s18.75-42 42-42h228.1875c23.15625 0 42 18.75 42 42s-18.84375 42-42 42z" fill="#ffffff" p-id="3217"></path><path d="M512.5625 709.72916667c-23.15625 0-42-18.75-42-42V439.63541667c0-23.15625 18.75-42 42-42 23.15625 0 42 18.75 42 42v228.1875c0 23.15625-18.84375 41.90625-42 41.90625z" fill="#ffffff" p-id="3218"></path></svg>