<?xml version="1.0" standalone="no"?><!DOCTYPE svg PUBLIC "-//W3C//DTD SVG 1.1//EN" "http://www.w3.org/Graphics/SVG/1.1/DTD/svg11.dtd"><svg t="1613291889097" class="icon" viewBox="0 0 1024 1024" version="1.1" xmlns="http://www.w3.org/2000/svg" p-id="16841" xmlns:xlink="http://www.w3.org/1999/xlink" width="200" height="200"><defs><style type="text/css"></style></defs><path d="M513 98.23c-229.19 0-415 185.8-415 415s185.8 415 415 415 415-185.8 415-415-185.81-415-415-415z m0 754.53c-187.52 0-339.54-152.02-339.54-339.54S325.48 173.68 513 173.68 852.54 325.7 852.54 513.22 700.52 852.76 513 852.76z" fill="#040000" p-id="16842"></path><path d="M475.27 616.97v113.18c0 20.83 16.89 37.73 37.73 37.73s37.73-16.89 37.73-37.73V616.97h113.18c20.83 0 37.73-16.89 37.73-37.73s-16.89-37.73-37.73-37.73H550.73v-37.73h113.18c20.83 0 37.73-16.89 37.73-37.73s-16.89-37.73-37.73-37.73h-97.55l80.03-80.02c14.73-14.73 14.73-38.63 0-53.35-14.73-14.73-38.64-14.73-53.36 0L513 374.98l-80.02-80.01c-14.73-14.73-38.63-14.73-53.36 0-14.73 14.73-14.73 38.63 0 53.35l80.03 80.02H362.1c-20.83 0-37.73 16.89-37.73 37.73s16.89 37.73 37.73 37.73h113.18v37.73H362.09c-20.83 0-37.73 16.89-37.73 37.73s16.89 37.73 37.73 37.73h113.18" fill="#040000" p-id="16843"></path></svg>