<?xml version="1.0" standalone="no"?><!DOCTYPE svg PUBLIC "-//W3C//DTD SVG 1.1//EN" "http://www.w3.org/Graphics/SVG/1.1/DTD/svg11.dtd"><svg t="1625379356508" class="icon" viewBox="0 0 1820 1024" version="1.1" xmlns="http://www.w3.org/2000/svg" p-id="12422" xmlns:xlink="http://www.w3.org/1999/xlink" width="355.46875" height="200"><defs><style type="text/css"></style></defs><path d="M910.222222 644.647822c-73.262459 0-132.64877-59.385363-132.64877-132.647822 0-73.264356 59.386311-132.64877 132.64877-132.64877 73.254874 0 132.647822 59.384415 132.647822 132.64877 0 73.263407-59.392948 132.647822-132.647822 132.647822z" fill="#1CB2EB" p-id="12423"></path><path d="M427.711526 644.647822c-73.264356 0-132.64877-59.385363-132.64877-132.647822 0-73.264356 59.384415-132.64877 132.64877-132.64877S560.360296 438.735644 560.360296 512c0 73.263407-59.384415 132.647822-132.64877 132.647822zM1392.732919 644.647822c-73.263407 0-132.64877-59.385363-132.648771-132.647822 0-73.264356 59.386311-132.64877 132.648771-132.64877 73.254874 0 132.647822 59.384415 132.647822 132.64877 0.000948 73.263407-59.392948 132.647822-132.647822 132.647822z" fill="#1CB2EB" opacity=".5" p-id="12424"></path></svg>