<?xml version="1.0" standalone="no"?><!DOCTYPE svg PUBLIC "-//W3C//DTD SVG 1.1//EN" "http://www.w3.org/Graphics/SVG/1.1/DTD/svg11.dtd"><svg t="1625930517348" class="icon" viewBox="0 0 1024 1024" version="1.1" xmlns="http://www.w3.org/2000/svg" p-id="3364" xmlns:xlink="http://www.w3.org/1999/xlink" width="200" height="200"><defs><style type="text/css"></style></defs><path d="M770.16666627 933.875M843.99479127 232.5000004l-611.71875 0C221.72916627 185.046875 216.44791667 153.40625 216.44791667 148.1406246c0-26.3749996-15.8125004-42.1875-31.640625-52.734375C168.99479127 90.125 158.43229207 90.125 153.16666667 90.125l0 0L95.16666627 90.125C79.33854167 90.125 68.79166667 100.671875 68.79166667 116.4999996 68.79166667 132.3125 79.33854167 142.859375 95.16666627 142.859375L153.16666667 142.859375l5.2656254 0c0 0 5.2812496 0 5.2812496 10.546875 5.2812496 31.640625 84.375 532.6093754 89.6406254 564.2656246 0 5.2656254 5.2812496 15.8281246 10.546875 31.640625 15.8281246 15.8125004 31.640625 31.640625 68.54687539 31.640625l490.43749961 0c15.8281246 0 26.3749996-10.546875 26.3749996-26.35937539s-10.546875-26.3749996-26.3749996-26.37499961L332.46354167 728.2187496c-5.2812496 0-15.8125004 0-21.09375-5.2812496l-5.2812496-5.2656254 0-5.2812496c0 0-5.2656254-21.09375-10.546875-52.734375l485.15625 0c42.1875 0 68.5624996-21.09375 79.1093746-58.0156246l0 0L912.54166667 301.0625l0-5.2812496C912.54166667 264.1562496 880.90104167 232.5000004 843.99479127 232.5000004L843.99479127 232.5000004 843.99479127 232.5000004zM812.35416627 591.0937504c-5.2812496 10.546875-10.546875 21.09375-26.3749996 21.09375L290.27604167 612.1875004C279.72916667 517.2656254 253.35416707 385.4375 237.54166667 285.2499996l606.4531246 0c5.2812496 0 10.546875 5.2656254 15.8125004 10.546875L812.35416627 591.0937504 812.35416627 591.0937504 812.35416627 591.0937504zM812.35416627 591.0937504M773.47916697 824.49999978c-30.20312467 0-54.68749969 24.48437503-54.68749969 54.68749971 0 30.20312467 24.48437503 54.68749969 54.6874997 54.68749968 30.20312467 0 54.68749969-24.48437503 54.68749969-54.68749968C828.16666667 848.98437482 803.68229164 824.49999978 773.47916697 824.49999978zM335.79166658 824.49999978c-30.20312467 0-54.68749969 24.48437503-54.68749969 54.68749971 0 30.20312467 24.48437503 54.68749969 54.68749969 54.68749968 30.20312467 0 54.68749969-24.48437503 54.68749969-54.68749968C390.47916627 848.98437482 365.99479207 824.49999978 335.79166658 824.49999978z" fill="#ffffff" p-id="3365"></path></svg>