<?xml version="1.0" standalone="no"?><!DOCTYPE svg PUBLIC "-//W3C//DTD SVG 1.1//EN" "http://www.w3.org/Graphics/SVG/1.1/DTD/svg11.dtd"><svg t="1625930601580" class="icon" viewBox="0 0 1054 1024" version="1.1" xmlns="http://www.w3.org/2000/svg" p-id="3215" xmlns:xlink="http://www.w3.org/1999/xlink" width="205.859375" height="200"><defs><style type="text/css"></style></defs><path d="M776.6525 992a88.1315625 88.1315625 0 0 1-41.7046875-10.7015625L533.8203125 874.124375a15.7378125 15.7378125 0 0 0-15.7378125 0l-200.4984375 107.1740625A89.7046875 89.7046875 0 0 1 275.8784375 992a89.075625 89.075625 0 0 1-87.3440625-104.0259375l38.4-226.46625a22.033125 22.033125 0 0 0-5.9803125-18.885L58.2265625 482.7275a88.603125 88.603125 0 0 1-21.403125-91.7503125 89.5471875 89.5471875 0 0 1 70.9771875-59.960625l224.57625-33.0496875a19.2 19.2 0 0 0 13.2196875-10.0715625L446.6328125 82.203125a89.233125 89.233125 0 0 1 160.3678125 0l100.40625 206.32125a19.2 19.2 0 0 0 13.21875 10.0725l224.263125 32.41875a88.918125 88.918125 0 0 1 49.415625 150.9253125l-162.255 161.784375a20.9315625 20.9315625 0 0 0-5.5078125 17.7825l38.4 227.2528125a88.603125 88.603125 0 0 1-20.3025 73.0228125A94.4259375 94.4259375 0 0 1 776.6525 992z m-250.3875-188.8528125a86.5575 86.5575 0 0 1 41.705625 10.7015625l200.9709375 107.175a14.16375 14.16375 0 0 0 7.7109375 2.203125 15.7378125 15.7378125 0 0 0 12.590625-6.4528125 18.4125 18.4125 0 0 0 4.40625-16.5253125l-38.4-227.251875a87.6590625 87.6590625 0 0 1 25.1803125-77.9015625l163.2-160.996875a21.718125 21.718125 0 0 0 4.87875-21.403125 17.6259375 17.6259375 0 0 0-14.32125-12.275625l-224.5771875-33.04875a87.815625 87.815625 0 0 1-67.0425-49.1025l-100.40625-207.5803125a15.7378125 15.7378125 0 0 0-15.7378125-10.0715625 17.311875 17.311875 0 0 0-15.7378125 10.0715625L409.806875 317.796875a87.815625 87.815625 0 0 1-67.0425 49.1015625L118.65875 399.9471875a18.4125 18.4125 0 0 0-14.32125 12.275625 19.515 19.515 0 0 0 4.87875 21.403125l162.7284375 160.996875a90.3346875 90.3346875 0 0 1 25.3378125 77.9015625L258.725 899.778125a19.6725 19.6725 0 0 0 4.40625 16.996875 18.0984375 18.0984375 0 0 0 12.590625 6.451875 14.16375 14.16375 0 0 0 7.7109375-2.203125l200.9709375-107.1740625a87.9740625 87.9740625 0 0 1 41.8621875-10.7015625z m0 0" fill="#ffffff" p-id="3216"></path></svg>