<?xml version="1.0" standalone="no"?><!DOCTYPE svg PUBLIC "-//W3C//DTD SVG 1.1//EN" "http://www.w3.org/Graphics/SVG/1.1/DTD/svg11.dtd"><svg t="1625376784011" class="icon" viewBox="0 0 1418 1024" version="1.1" xmlns="http://www.w3.org/2000/svg" p-id="3920" xmlns:xlink="http://www.w3.org/1999/xlink" width="276.953125" height="200"><defs><style type="text/css"></style></defs><path d="M1360.82315 886.652343a44.002743 44.002743 0 0 1-44.178286-44.178286l-1.360457-305.210514c0-56.1152-45.597257-102.4-102.414629-102.4H87.68395v341.6064c0 16.135314 13.326629 29.476571 29.461943 29.476571h72.265142c24.546743 0 43.476114 19.631543 43.476115 44.178286 0 24.561371-19.631543 44.207543-43.490743 44.207543H117.145893C52.604635 894.332343 0.000293 841.713371 0.000293 777.172114V392.060343a44.002743 44.002743 0 0 1 44.192914-44.178286h1169.378743c104.521143 0 190.098286 84.860343 190.098285 190.083657l1.345829 305.195886c-0.702171 23.844571-20.333714 43.490743-44.178286 43.490743z" fill="#ffffff" p-id="3921"></path><path d="M1170.286007 804.571429h176.391314C1386.83275 804.571429 1389.714578 824.071314 1389.714578 848.457143s-4.022857 43.885714-44.178285 43.885714H1173.650578m-210.973257 0h-466.212571C455.680293 892.342857 424.228864 872.842971 424.228864 848.457143s32.621714-43.885714 72.235886-43.885714H965.486007M152.927378 435.551086a43.52 43.52 0 0 1-22.454857-6.304915c-21.035886-12.639086-27.355429-39.292343-14.730971-60.328228C235.95915 171.797943 301.831607 63.341714 313.402807 43.593143 330.752293 13.955657 353.748407 1.3312 386.516407 1.3312h425.106286c18.241829 0 43.914971 0 60.5184 24.312686l344.941714 334.848a43.402971 43.402971 0 0 1 0.702171 61.732571 43.402971 43.402971 0 0 1-61.732571 0.702172L811.622693 88.312686h-425.106286l-196.417829 325.485714c-7.709257 14.7456-22.440229 21.752686-37.1712 21.752686z" fill="#ffffff" p-id="3922"></path><path d="M643.964635 435.551086A44.002743 44.002743 0 0 1 599.771721 391.3728V45.509486a44.002743 44.002743 0 0 1 44.192914-44.178286 44.002743 44.002743 0 0 1 44.192915 44.178286v346.550857c-0.702171 23.844571-20.333714 43.476114-44.192915 43.476114zM331.103378 1021.293714c-94.0032 0-171.154286-76.463543-171.154285-171.154285 0-94.705371 77.151086-170.466743 171.154285-170.466743 94.0032 0 171.154286 76.463543 171.154286 171.154285 0 94.705371-77.151086 170.466743-171.154286 170.466743z m0-253.937371c-45.597257 0-83.485257 37.185829-83.485257 83.485257a83.236571 83.236571 0 0 0 83.485257 83.470629c46.299429 0 82.768457-37.888 82.768457-84.1728a82.475886 82.475886 0 0 0-82.768457-82.783086z m753.400686 253.952c-94.0032 0-171.168914-76.478171-171.168914-171.168914 0-94.705371 76.463543-171.168914 171.154285-171.168915 94.0032 0 171.168914 76.463543 171.168915 171.154286 0 94.705371-77.165714 171.168914-171.154286 171.168914z m0-253.952c-45.597257 0-83.485257 37.185829-83.485257 83.485257a83.236571 83.236571 0 0 0 83.485257 83.470629 83.236571 83.236571 0 0 0 83.470629-83.470629c0-46.299429-37.888-83.485257-83.470629-83.485257z" fill="#ffffff" p-id="3923"></path></svg>